# xmcd
#
# Track frame offsets: 
#        150
#        31517
#        107736
#        149383
#        202209
#        228657
#        253275
#        306514
#
# Disc length: 4766 seconds
#
# Revision: 1
# Processed by: cddbd v1.5.2PL0 Copyright (c) Steve Scherf et al.
# Submitted via: ExactAudioCopy v0.99pb3
#
DISCID=76129c08
DTITLE=Amelie Fried - Ich liebe dich wie Apfelmus
DYEAR=2006
DGENRE=Kinder
TTITLE0=Wie kann man übers Wasser laufen, ohne sofort abzusaufen?
TTITLE1=In ihr Maushaus lief die Hausmaus
TTITLE2=Wenn vor lauter dicken Dackeln alle Pflastersteine wackeln
TTITLE3=Es wird dir einer begegnen, der hat mich gehört
TTITLE4=Die kleinlistigen Fliegen wohnen in Butterstadt
TTITLE5=Dein Briefumschlag halte ich eingepflanzt in den Blumentopf
TTITLE6=Das jagte selbst den Bock ins Horn
TTITLE7=Da saßen drei Stühle auf drei großen Herrn
EXTD=
EXTT0=
EXTT1=
EXTT2=
EXTT3=
EXTT4=
EXTT5=
EXTT6=
EXTT7=
PLAYORDER=
